<svg width="1320" height="500" viewBox="0 0 1320 500" fill="none" xmlns="http://www.w3.org/2000/svg">
<rect x="183.172" y="-248.666" width="24" height="792" stroke="#393953" stroke-opacity="0.3"/>
<rect x="207.172" y="-248.666" width="24" height="792" stroke="#393953" stroke-opacity="0.3"/>
<rect x="231.172" y="-248.666" width="24" height="792" stroke="#393953" stroke-opacity="0.3"/>
<rect x="255.172" y="-248.666" width="24" height="792" stroke="#393953" stroke-opacity="0.3"/>
<rect x="279.172" y="-248.666" width="24" height="792" stroke="#393953" stroke-opacity="0.3"/>
<rect x="303.172" y="-248.666" width="24" height="792" stroke="#393953" stroke-opacity="0.3"/>
<rect x="327.172" y="-248.666" width="24" height="792" stroke="#393953" stroke-opacity="0.3"/>
<rect x="351.172" y="-248.666" width="24" height="792" stroke="#393953" stroke-opacity="0.3"/>
<rect x="375.172" y="-248.666" width="24" height="792" stroke="#393953" stroke-opacity="0.3"/>
<rect x="399.172" y="-248.666" width="24" height="792" stroke="#393953" stroke-opacity="0.3"/>
<rect x="423.172" y="-248.666" width="24" height="792" stroke="#393953" stroke-opacity="0.3"/>
<rect x="447.172" y="-248.666" width="24" height="792" stroke="#393953" stroke-opacity="0.3"/>
<rect x="471.172" y="-248.666" width="24" height="792" stroke="#393953" stroke-opacity="0.3"/>
<rect x="495.172" y="-248.666" width="24" height="792" stroke="#393953" stroke-opacity="0.3"/>
<rect x="519.172" y="-248.666" width="24" height="792" stroke="#393953" stroke-opacity="0.3"/>
<rect x="543.172" y="-248.666" width="24" height="792" stroke="#393953" stroke-opacity="0.3"/>
<rect x="567.172" y="-248.666" width="24" height="792" stroke="#393953" stroke-opacity="0.3"/>
<rect x="591.172" y="-248.666" width="24" height="792" stroke="#393953" stroke-opacity="0.3"/>
<rect x="615.172" y="-248.666" width="24" height="792" stroke="#393953" stroke-opacity="0.3"/>
<rect x="639.172" y="-248.666" width="24" height="792" stroke="#393953" stroke-opacity="0.3"/>
<rect x="663.172" y="-248.666" width="24" height="792" stroke="#393953" stroke-opacity="0.3"/>
<rect x="687.172" y="-248.666" width="24" height="792" stroke="#393953" stroke-opacity="0.3"/>
<rect x="711.172" y="-248.666" width="24" height="792" stroke="#393953" stroke-opacity="0.3"/>
<rect x="735.172" y="-248.666" width="24" height="792" stroke="#393953" stroke-opacity="0.3"/>
<rect x="759.172" y="-248.666" width="24" height="792" stroke="#393953" stroke-opacity="0.3"/>
<rect x="783.172" y="-248.666" width="24" height="792" stroke="#393953" stroke-opacity="0.3"/>
<rect x="807.172" y="-248.666" width="24" height="792" stroke="#393953" stroke-opacity="0.3"/>
<rect x="831.172" y="-248.666" width="24" height="792" stroke="#393953" stroke-opacity="0.3"/>
<rect x="855.172" y="-248.666" width="24" height="792" stroke="#393953" stroke-opacity="0.3"/>
<rect x="879.172" y="-248.666" width="24" height="792" stroke="#393953" stroke-opacity="0.3"/>
<rect x="903.172" y="-248.666" width="24" height="792" stroke="#393953" stroke-opacity="0.3"/>
<rect x="927.172" y="-248.666" width="24" height="792" stroke="#393953" stroke-opacity="0.3"/>
<rect x="951.172" y="-248.666" width="24" height="792" stroke="#393953" stroke-opacity="0.3"/>
<rect x="975.172" y="-248.666" width="24" height="792" stroke="#393953" stroke-opacity="0.3"/>
<rect x="999.172" y="-248.666" width="24" height="792" stroke="#393953" stroke-opacity="0.3"/>
<rect x="1023.17" y="-248.666" width="24" height="792" stroke="#393953" stroke-opacity="0.3"/>
<rect x="1047.17" y="-248.666" width="24" height="792" stroke="#393953" stroke-opacity="0.3"/>
<rect x="1071.17" y="-248.666" width="24" height="792" stroke="#393953" stroke-opacity="0.3"/>
<rect x="1095.17" y="-248.666" width="24" height="792" stroke="#393953" stroke-opacity="0.3"/>
<rect x="1119.17" y="-248.666" width="24" height="792" stroke="#393953" stroke-opacity="0.3"/>
<rect x="-56.8281" y="15.334" width="24" height="1440" transform="rotate(-90 -56.8281 15.334)" stroke="#393953" stroke-opacity="0.3"/>
<rect x="-56.8281" y="39.334" width="24" height="1440" transform="rotate(-90 -56.8281 39.334)" stroke="#393953" stroke-opacity="0.3"/>
<rect x="-56.8281" y="63.334" width="24" height="1440" transform="rotate(-90 -56.8281 63.334)" stroke="#393953" stroke-opacity="0.3"/>
<rect x="-56.8281" y="87.334" width="24" height="1440" transform="rotate(-90 -56.8281 87.334)" stroke="#393953" stroke-opacity="0.3"/>
<rect x="-56.8281" y="111.334" width="24" height="1440" transform="rotate(-90 -56.8281 111.334)" stroke="#393953" stroke-opacity="0.3"/>
<rect x="-56.8281" y="135.334" width="24" height="1440" transform="rotate(-90 -56.8281 135.334)" stroke="#393953" stroke-opacity="0.3"/>
<rect x="-56.8281" y="159.334" width="24" height="1440" transform="rotate(-90 -56.8281 159.334)" stroke="#393953" stroke-opacity="0.3"/>
<rect x="-56.8281" y="183.334" width="24" height="1440" transform="rotate(-90 -56.8281 183.334)" stroke="#393953" stroke-opacity="0.3"/>
<rect x="-56.8281" y="207.334" width="24" height="1440" transform="rotate(-90 -56.8281 207.334)" stroke="#393953" stroke-opacity="0.3"/>
<rect x="-56.8281" y="231.334" width="24" height="1440" transform="rotate(-90 -56.8281 231.334)" stroke="#393953" stroke-opacity="0.3"/>
<rect x="-56.8281" y="255.334" width="24" height="1440" transform="rotate(-90 -56.8281 255.334)" stroke="#393953" stroke-opacity="0.3"/>
<rect x="-56.8281" y="279.334" width="24" height="1440" transform="rotate(-90 -56.8281 279.334)" stroke="#393953" stroke-opacity="0.3"/>
<rect x="-56.8281" y="303.334" width="24" height="1440" transform="rotate(-90 -56.8281 303.334)" stroke="#393953" stroke-opacity="0.3"/>
</svg>
