<svg width="1320" height="500" viewBox="0 0 1320 500" fill="none" xmlns="http://www.w3.org/2000/svg">
<mask id="mask0_2352_31926" style="mask-type:alpha" maskUnits="userSpaceOnUse" x="200" y="-20" width="921" height="320">
<path opacity="0.7" fill-rule="evenodd" clip-rule="evenodd" d="M223.868 15.9937C249.89 28.3171 301.934 62.8414 301.934 102.351C301.934 105.117 301.891 108.369 301.842 112.034C301.011 173.815 298.609 352.613 477.584 284.944C502.918 275.366 528.948 266.05 554.537 256.891C589.788 244.275 624.202 231.958 654.808 219.667C763.464 282.113 864.665 321.311 977.426 237.782C1129.56 125.083 1171.83 -67.7552 1045.83 -0.377043C1023.73 13.7811 960.075 42.9148 882.31 46.1843C876.867 46.4132 870.461 46.6603 863.245 46.9387C816.125 48.7563 734.442 51.9073 660.63 60.0097C448.088 -18.7275 106.673 -50.3612 223.868 15.9937Z" fill="url(#paint0_linear_2352_31926)"/>
</mask>
<g mask="url(#mask0_2352_31926)">
<rect x="183.172" y="-248.666" width="24" height="792" stroke="#393953" stroke-opacity="0.3"/>
<rect x="207.172" y="-248.666" width="24" height="792" stroke="#393953" stroke-opacity="0.3"/>
<rect x="231.172" y="-248.666" width="24" height="792" stroke="#393953" stroke-opacity="0.3"/>
<rect x="255.172" y="-248.666" width="24" height="792" stroke="#393953" stroke-opacity="0.3"/>
<rect x="279.172" y="-248.666" width="24" height="792" stroke="#393953" stroke-opacity="0.3"/>
<rect x="303.172" y="-248.666" width="24" height="792" stroke="#393953" stroke-opacity="0.3"/>
<rect x="327.172" y="-248.666" width="24" height="792" stroke="#393953" stroke-opacity="0.3"/>
<rect x="351.172" y="-248.666" width="24" height="792" stroke="#393953" stroke-opacity="0.3"/>
<rect x="375.172" y="-248.666" width="24" height="792" stroke="#393953" stroke-opacity="0.3"/>
<rect x="399.172" y="-248.666" width="24" height="792" stroke="#393953" stroke-opacity="0.3"/>
<rect x="423.172" y="-248.666" width="24" height="792" stroke="#393953" stroke-opacity="0.3"/>
<rect x="447.172" y="-248.666" width="24" height="792" stroke="#393953" stroke-opacity="0.3"/>
<rect x="471.172" y="-248.666" width="24" height="792" stroke="#393953" stroke-opacity="0.3"/>
<rect x="495.172" y="-248.666" width="24" height="792" stroke="#393953" stroke-opacity="0.3"/>
<rect x="519.172" y="-248.666" width="24" height="792" stroke="#393953" stroke-opacity="0.3"/>
<rect x="543.172" y="-248.666" width="24" height="792" stroke="#393953" stroke-opacity="0.3"/>
<rect x="567.172" y="-248.666" width="24" height="792" stroke="#393953" stroke-opacity="0.3"/>
<rect x="591.172" y="-248.666" width="24" height="792" stroke="#393953" stroke-opacity="0.3"/>
<rect x="615.172" y="-248.666" width="24" height="792" stroke="#393953" stroke-opacity="0.3"/>
<rect x="639.172" y="-248.666" width="24" height="792" stroke="#393953" stroke-opacity="0.3"/>
<rect x="663.172" y="-248.666" width="24" height="792" stroke="#393953" stroke-opacity="0.3"/>
<rect x="687.172" y="-248.666" width="24" height="792" stroke="#393953" stroke-opacity="0.3"/>
<rect x="711.172" y="-248.666" width="24" height="792" stroke="#393953" stroke-opacity="0.3"/>
<rect x="735.172" y="-248.666" width="24" height="792" stroke="#393953" stroke-opacity="0.3"/>
<rect x="759.172" y="-248.666" width="24" height="792" stroke="#393953" stroke-opacity="0.3"/>
<rect x="783.172" y="-248.666" width="24" height="792" stroke="#393953" stroke-opacity="0.3"/>
<rect x="807.172" y="-248.666" width="24" height="792" stroke="#393953" stroke-opacity="0.3"/>
<rect x="831.172" y="-248.666" width="24" height="792" stroke="#393953" stroke-opacity="0.3"/>
<rect x="855.172" y="-248.666" width="24" height="792" stroke="#393953" stroke-opacity="0.3"/>
<rect x="879.172" y="-248.666" width="24" height="792" stroke="#393953" stroke-opacity="0.3"/>
<rect x="903.172" y="-248.666" width="24" height="792" stroke="#393953" stroke-opacity="0.3"/>
<rect x="927.172" y="-248.666" width="24" height="792" stroke="#393953" stroke-opacity="0.3"/>
<rect x="951.172" y="-248.666" width="24" height="792" stroke="#393953" stroke-opacity="0.3"/>
<rect x="975.172" y="-248.666" width="24" height="792" stroke="#393953" stroke-opacity="0.3"/>
<rect x="999.172" y="-248.666" width="24" height="792" stroke="#393953" stroke-opacity="0.3"/>
<rect x="1023.17" y="-248.666" width="24" height="792" stroke="#393953" stroke-opacity="0.3"/>
<rect x="1047.17" y="-248.666" width="24" height="792" stroke="#393953" stroke-opacity="0.3"/>
<rect x="1071.17" y="-248.666" width="24" height="792" stroke="#393953" stroke-opacity="0.3"/>
<rect x="1095.17" y="-248.666" width="24" height="792" stroke="#393953" stroke-opacity="0.3"/>
<rect x="1119.17" y="-248.666" width="24" height="792" stroke="#393953" stroke-opacity="0.3"/>
<rect x="-56.8281" y="15.334" width="24" height="1440" transform="rotate(-90 -56.8281 15.334)" stroke="#393953" stroke-opacity="0.3"/>
<rect x="-56.8281" y="39.334" width="24" height="1440" transform="rotate(-90 -56.8281 39.334)" stroke="#393953" stroke-opacity="0.3"/>
<rect x="-56.8281" y="63.334" width="24" height="1440" transform="rotate(-90 -56.8281 63.334)" stroke="#393953" stroke-opacity="0.3"/>
<rect x="-56.8281" y="87.334" width="24" height="1440" transform="rotate(-90 -56.8281 87.334)" stroke="#393953" stroke-opacity="0.3"/>
<rect x="-56.8281" y="111.334" width="24" height="1440" transform="rotate(-90 -56.8281 111.334)" stroke="#393953" stroke-opacity="0.3"/>
<rect x="-56.8281" y="135.334" width="24" height="1440" transform="rotate(-90 -56.8281 135.334)" stroke="#393953" stroke-opacity="0.3"/>
<rect x="-56.8281" y="159.334" width="24" height="1440" transform="rotate(-90 -56.8281 159.334)" stroke="#393953" stroke-opacity="0.3"/>
<rect x="-56.8281" y="183.334" width="24" height="1440" transform="rotate(-90 -56.8281 183.334)" stroke="#393953" stroke-opacity="0.3"/>
<rect x="-56.8281" y="207.334" width="24" height="1440" transform="rotate(-90 -56.8281 207.334)" stroke="#393953" stroke-opacity="0.3"/>
<rect x="-56.8281" y="231.334" width="24" height="1440" transform="rotate(-90 -56.8281 231.334)" stroke="#393953" stroke-opacity="0.3"/>
<rect x="-56.8281" y="255.334" width="24" height="1440" transform="rotate(-90 -56.8281 255.334)" stroke="#393953" stroke-opacity="0.3"/>
<rect x="-56.8281" y="279.334" width="24" height="1440" transform="rotate(-90 -56.8281 279.334)" stroke="#393953" stroke-opacity="0.3"/>
<rect x="-56.8281" y="303.334" width="24" height="1440" transform="rotate(-90 -56.8281 303.334)" stroke="#393953" stroke-opacity="0.3"/>
</g>
<defs>
<linearGradient id="paint0_linear_2352_31926" x1="1110.34" y1="-40.2222" x2="906.286" y2="378.477" gradientUnits="userSpaceOnUse">
<stop stop-color="white"/>
<stop offset="1" stop-color="white"/>
</linearGradient>
</defs>
</svg>
